<?xml version="1.0" encoding="utf-8"?>
<svg width="518" height="120" viewBox="0 0 518 120" fill="none" xmlns="http://www.w3.org/2000/svg">
  <path d="M-3.08811e-06 27.6619C-1.72904e-06 19.889 8.47971 15.0878 15.145 19.087L40.2899 34.174C46.314 37.7884 50 44.2986 50 51.3238L50 68.6762C50 75.7015 46.314 82.2116 40.2899 85.8261L15.1449 100.913C8.47968 104.912 -1.57555e-05 100.111 -1.43965e-05 92.3381L-3.08811e-06 27.6619Z" fill="#FA776C"/>
  <path d="M103.855 -3.00576e-06C109.151 -1.88027e-06 111.85 6.36198 108.169 10.1701L94.8962 23.9004C91.1279 27.7987 85.9383 30 80.5165 30L55.5397 30C51.9148 30 48.3581 29.0148 45.2498 27.1498L18.5749 11.1449C13.3568 8.01404 15.5766 -2.17645e-05 21.6619 -2.04714e-05L103.855 -3.00576e-06Z" fill="#624CF5"/>
  <path d="M103.855 120C109.151 120 111.85 113.638 108.169 109.83L94.8962 96.0995C91.1279 92.2013 85.9384 90 80.5165 90L55.5397 90C51.9148 90 48.3581 90.9851 45.2498 92.8501L18.5749 108.855C13.3568 111.986 15.5766 120 21.6619 120L103.855 120Z" fill="#624CF5"/>
  <rect x="56" y="45" width="30" height="30" rx="15" fill="#FA776C"/>
  <text style="fill: rgb(51, 51, 51); font-family: &quot;Berlin Sans FB&quot;; font-size: 28px; font-weight: 700; white-space: pre;" x="108.439" y="56.324" transform="matrix(2.332072, 0, 0, 2.291139, -135.747284, -47.158997)">Star Evently</text>
</svg>