<?xml version="1.0" standalone="no"?>
<!DOCTYPE svg PUBLIC "-//W3C//DTD SVG 20010904//EN"
 "http://www.w3.org/TR/2001/REC-SVG-20010904/DTD/svg10.dtd">
<svg version="1.0" xmlns="http://www.w3.org/2000/svg"
 width="225.000000pt" height="225.000000pt" viewBox="0 0 225.000000 225.000000"
 preserveAspectRatio="xMidYMid meet">

<g transform="translate(0.000000,225.000000) scale(0.100000,-0.100000)"
fill="#000000" stroke="none">
<path d="M1056 2236 c-52 -19 -86 -45 -114 -86 -50 -74 -52 -159 -6 -238 27
-45 102 -101 138 -103 12 -1 -11 -5 -51 -9 -85 -9 -159 -46 -209 -103 -37 -44
-74 -117 -74 -147 0 -13 -14 -27 -42 -41 -94 -47 -138 -113 -138 -209 0 -91
38 -154 117 -194 18 -9 40 -17 50 -17 10 -1 -18 -5 -62 -9 -97 -8 -159 -34
-215 -90 -43 -43 -90 -129 -90 -167 0 -16 -9 -25 -36 -33 -82 -27 -143 -114
-144 -203 0 -91 47 -161 135 -203 l50 -24 -56 0 c-77 0 -141 -24 -198 -76 -57
-52 -97 -127 -107 -200 -11 -89 -39 -84 477 -84 291 0 457 4 470 10 11 6 19
21 19 35 0 33 -27 45 -104 45 -36 0 -66 4 -66 9 0 54 85 146 153 166 68 20
276 20 344 0 68 -20 153 -112 153 -166 0 -5 -30 -9 -66 -9 -36 0 -74 -5 -85
-10 -25 -14 -25 -56 0 -70 13 -6 179 -10 470 -10 516 0 488 -5 477 84 -10 73
-50 148 -107 200 -57 52 -121 76 -198 76 l-56 0 50 24 c88 42 135 112 135 203
-1 89 -62 176 -144 203 -27 8 -36 17 -36 33 0 38 -47 124 -90 167 -56 56 -118
82 -215 90 -44 4 -72 8 -62 9 10 0 32 8 50 17 79 40 117 103 117 194 0 96 -44
162 -137 209 -29 14 -43 28 -43 41 0 30 -37 103 -74 147 -50 57 -124 94 -209
103 -40 4 -63 8 -51 9 11 0 41 14 66 30 118 75 139 236 44 339 -52 58 -158 84
-230 58z m138 -95 c62 -41 82 -110 51 -174 -24 -50 -62 -72 -122 -72 -47 0
-56 4 -89 36 -66 66 -56 158 22 210 37 24 101 24 138 0z m99 -445 c18 -7 48
-28 66 -47 35 -34 73 -107 65 -121 -7 -10 -591 -10 -598 0 -8 14 29 86 62 118
56 56 83 64 235 64 94 0 148 -4 170 -14z m-444 -285 c41 -30 64 -92 51 -140
-15 -56 -59 -93 -117 -98 -60 -5 -102 19 -127 72 -58 122 84 244 193 166z
m451 26 c0 -1 -9 -20 -20 -42 -46 -90 -10 -220 76 -275 27 -16 57 -31 68 -31
12 -1 -9 -5 -45 -9 -90 -11 -150 -39 -207 -98 l-48 -49 -47 49 c-56 58 -116
87 -206 98 -36 4 -57 8 -45 9 11 0 41 15 68 31 86 55 122 185 76 275 -11 22
-20 41 -20 42 0 2 79 3 175 3 96 0 175 -1 175 -3z m246 -22 c56 -36 77 -110
48 -170 -52 -111 -212 -93 -245 28 -9 33 -7 45 13 85 39 77 117 101 184 57z
m-577 -458 c41 -27 101 -107 101 -134 0 -10 -62 -13 -311 -13 l-310 0 6 23
c19 60 76 122 135 146 14 6 92 9 181 8 152 -2 157 -3 198 -30z m729 0 c42 -27
84 -82 97 -124 l6 -23 -310 0 c-249 0 -311 3 -311 13 0 23 56 103 88 125 52
38 74 41 233 39 151 -2 157 -3 197 -30z m-1228 -265 c39 -28 63 -86 55 -129
-9 -48 -60 -99 -108 -108 -75 -14 -152 51 -152 130 0 105 121 168 205 107z
m460 -12 c-13 -25 -20 -59 -20 -95 0 -92 49 -163 140 -204 l45 -21 -76 0 c-64
0 -85 -5 -138 -31 -36 -18 -76 -48 -97 -73 l-36 -43 -56 57 c-65 64 -123 90
-211 91 -54 0 -55 1 -26 12 101 40 147 99 153 198 3 53 0 74 -17 107 l-21 42
190 0 190 0 -20 -40z m270 12 c39 -28 63 -86 55 -129 -9 -48 -60 -99 -108
-108 -75 -14 -152 51 -152 130 0 105 121 168 205 107z m459 -14 c-17 -33 -20
-55 -17 -108 5 -90 37 -138 121 -180 l60 -30 -55 0 c-86 0 -145 -25 -210 -90
l-56 -57 -36 43 c-21 25 -61 55 -97 73 -53 26 -74 31 -138 31 l-76 0 45 21
c91 41 140 112 140 204 0 36 -7 70 -20 95 l-20 40 190 0 190 0 -21 -42z m267
17 c59 -38 78 -128 38 -182 -29 -40 -87 -67 -129 -59 -45 9 -91 48 -105 91
-38 115 95 217 196 150z m-1349 -443 c46 -24 84 -68 108 -125 l15 -37 -305 0
-305 0 11 27 c18 48 49 92 81 114 58 42 96 49 228 46 106 -2 131 -6 167 -25z
m1465 -5 c50 -29 79 -64 103 -121 l15 -36 -305 0 -305 0 15 37 c50 121 117
154 305 151 116 -3 128 -5 172 -31z"/>
<path d="M1096 74 c-9 -8 -16 -22 -16 -29 0 -18 27 -45 45 -45 18 0 45 27 45
45 0 18 -27 45 -45 45 -7 0 -21 -7 -29 -16z"/>
</g>
</svg>
